<svg width="90" height="90" viewBox="0 0 90 90" fill="none" xmlns="http://www.w3.org/2000/svg">
<path d="M31.8375 14.2968L5.59468 2.04529L1.8457 14.2968L9.34365 49.0094L80.5742 46.9675L88.0721 14.2968L82.4487 2.04529L58.0803 14.2968H31.8375Z" fill="#763D16"/>
<path d="M26.2153 49.0068H67.4541V77.5937H26.2153V49.0068Z" fill="#333333"/>
<rect x="29.9634" y="69.4258" width="22.4939" height="12.2515" fill="#333333"/>
<path d="M5.92967 43.5508C6.4783 44.2326 6.63505 45.1701 6.39992 45.9372L0.835239 64.6873C0.678488 65.1987 0.678488 65.71 0.835239 66.1362L5.69454 84.2897C6.08642 85.6534 7.34043 86.4204 8.51607 85.9943L25.2101 80.9658C25.9155 80.7102 26.6993 80.9658 27.3263 81.4772L30.2262 84.034C30.3045 84.1193 30.3045 84.1193 30.3829 84.1193L37.5935 89.5739C37.9854 89.8295 38.4556 90 38.9259 90H50.9957C51.466 90 51.9363 89.8295 52.3281 89.5739L59.5387 84.1193C59.6171 84.1193 59.6171 84.034 59.6955 84.034L62.5954 81.4772C63.144 80.9658 63.9278 80.7954 64.7115 80.9658L81.4056 85.9943C82.6596 86.3352 83.9136 85.5682 84.2271 84.2897L89.0864 66.1362C89.2431 65.6248 89.2431 65.1134 89.0864 64.6873L83.5217 45.9372C83.2866 45.0849 83.4433 44.2326 83.992 43.5508L89.9485 14.4881C90.0269 14.0619 90.0269 13.6358 89.8701 13.2097L86.3432 1.70388C85.9513 0.340238 84.5406 -0.341585 83.2866 0.169782L57.2658 10.738C57.0307 10.8233 56.7172 10.9085 56.4821 10.9085H33.4396C33.1261 10.9085 32.8909 10.8233 32.6558 10.738L6.63505 0.169782C5.38104 -0.341585 3.97027 0.340238 3.57839 1.70388L0.129857 13.2097C-0.0268943 13.5506 -0.0268943 14.0619 0.0514815 14.4881L5.92967 43.5508ZM52.4849 58.21L54.4443 53.7781C54.6794 53.2668 55.3064 53.0111 55.7767 53.2668L60.4792 55.5679C61.3413 55.9941 61.263 57.3577 60.3225 57.6986L53.7389 59.8293C52.8768 60.085 52.093 59.1475 52.4849 58.21ZM52.093 27.4427C51.6228 27.0166 51.6228 26.1643 52.1714 25.8234L81.7974 3.74935C82.2677 3.40844 82.9731 3.5789 83.2082 4.26072L86.8919 15.2551C86.9702 15.4256 86.9702 15.596 86.8919 15.8517L80.8569 41.1644C80.7002 41.6758 80.2299 41.9315 79.7597 41.761L63.4575 36.9882C63.3007 36.9882 63.2224 36.903 63.144 36.8178L52.093 27.4427ZM37.7502 79.7727L38.2989 74.8294C38.2989 74.5738 38.4556 74.3181 38.6908 74.1476L39.788 73.2953C39.9448 73.2101 40.1015 73.1249 40.2583 73.1249H49.5066C49.6634 73.1249 49.8985 73.2101 49.9769 73.2953L51.0741 74.1476C51.3092 74.3181 51.3876 74.5738 51.466 74.8294L51.9363 79.7727C52.0146 80.3692 51.5444 80.8806 51.0741 80.8806H38.534C38.1421 80.8806 37.7502 80.3692 37.7502 79.7727ZM29.4424 55.5679L34.145 53.2668C34.6936 53.0111 35.2422 53.2668 35.4773 53.7781L37.4367 58.21C37.8286 59.0623 37.0449 59.9998 36.1827 59.7441L29.5208 57.6134C28.6586 57.3577 28.5803 55.9941 29.4424 55.5679ZM3.02976 15.7665C2.95139 15.596 3.02976 15.3404 3.02976 15.1699L6.71342 4.26072C6.94855 3.66413 7.65393 3.40844 8.12419 3.74935L37.7502 25.8234C38.2989 26.2495 38.2989 27.0166 37.8286 27.4427L26.7776 36.8178C26.6993 36.903 26.5425 36.9882 26.4641 36.9882L10.162 41.761C9.6917 41.9315 9.22145 41.6758 9.0647 41.1644L3.02976 15.7665Z" fill="#F36D34"/>
</svg>
